<?xml version="1.0" encoding="UTF-8" standalone="no"?>
<svg
   xmlns:dc="http://purl.org/dc/elements/1.1/"
   xmlns:cc="http://creativecommons.org/ns#"
   xmlns:rdf="http://www.w3.org/1999/02/22-rdf-syntax-ns#"
   xmlns:svg="http://www.w3.org/2000/svg"
   xmlns="http://www.w3.org/2000/svg"
   viewBox="0 0 40 400"
   height="400"
   width="40"
   xml:space="preserve"
   version="1.1"
   id="svg2"><metadata
     id="metadata8"><rdf:RDF><cc:Work
         rdf:about=""><dc:format>image/svg+xml</dc:format><dc:type
           rdf:resource="http://purl.org/dc/dcmitype/StillImage" /></cc:Work></rdf:RDF></metadata><defs
     id="defs6"><clipPath
       id="clipPath16"
       clipPathUnits="userSpaceOnUse"><path
         id="path18"
         d="M 0,320 32,320 32,0 0,0 0,320 Z" /></clipPath><clipPath
       id="clipPath28"
       clipPathUnits="userSpaceOnUse"><path
         id="path30"
         d="M 0,320 32,320 32,0 0,0 0,320 Z" /></clipPath><clipPath
       id="clipPath40"
       clipPathUnits="userSpaceOnUse"><path
         id="path42"
         d="M 0,320 32,320 32,0 0,0 0,320 Z" /></clipPath><clipPath
       id="clipPath56"
       clipPathUnits="userSpaceOnUse"><path
         id="path58"
         d="M 0,320 32,320 32,0 0,0 0,320 Z" /></clipPath><clipPath
       id="clipPath68"
       clipPathUnits="userSpaceOnUse"><path
         id="path70"
         d="M 0,320 32,320 32,0 0,0 0,320 Z" /></clipPath><clipPath
       id="clipPath80"
       clipPathUnits="userSpaceOnUse"><path
         id="path82"
         d="M 0,320 32,320 32,0 0,0 0,320 Z" /></clipPath><clipPath
       id="clipPath92"
       clipPathUnits="userSpaceOnUse"><path
         id="path94"
         d="M 0,320 32,320 32,0 0,0 0,320 Z" /></clipPath><clipPath
       id="clipPath106"
       clipPathUnits="userSpaceOnUse"><path
         id="path108"
         d="M 0,320 32,320 32,0 0,0 0,320 Z" /></clipPath><clipPath
       id="clipPath120"
       clipPathUnits="userSpaceOnUse"><path
         id="path122"
         d="M 0,320 32,320 32,0 0,0 0,320 Z" /></clipPath></defs><g
     transform="matrix(1.25,0,0,-1.25,0,400)"
     id="g10"><g
       id="g12"><g
         clip-path="url(#clipPath16)"
         id="g14"><g
           transform="translate(24.9853,9.2887)"
           id="g20"><path
             id="path22"
             style="fill:#ffffff;fill-opacity:1;fill-rule:nonzero;stroke:none"
             d="M 0,0 -6.465,6.579 0,13.157 c 0.698,0.711 0.698,1.854 0,2.564 -0.698,0.711 -1.822,0.711 -2.52,0 l -6.465,-6.578 -6.466,6.578 c -0.698,0.711 -1.822,0.711 -2.52,0 -0.698,-0.71 -0.698,-1.853 0,-2.564 L -11.505,6.579 -17.971,0 c -0.698,-0.71 -0.698,-1.854 0,-2.564 0.698,-0.71 1.822,-0.71 2.52,0 l 6.466,6.579 6.465,-6.579 c 0.698,-0.71 1.822,-0.71 2.52,0 0.693,0.71 0.693,1.859 0,2.564" /></g></g></g><g
       id="g24"><g
         clip-path="url(#clipPath28)"
         id="g26"><g
           transform="translate(18.0871,57.7161)"
           id="g32"><path
             id="path34"
             style="fill:#ffffff;fill-opacity:1;fill-rule:nonzero;stroke:none"
             d="m 0,0 -4.177,0 c -0.38,0 -0.72,-0.243 -0.849,-0.607 l -6.403,-18.062 c -0.213,-0.598 0.223,-1.23 0.848,-1.23 l 3.822,0 c 0.398,0 0.749,0.265 0.864,0.653 l 0.668,2.248 c 0.116,0.388 0.466,0.653 0.864,0.653 l 4.494,0 c 0.398,0 0.748,-0.265 0.864,-0.652 l 0.669,-2.25 c 0.115,-0.387 0.466,-0.652 0.864,-0.652 l 3.878,0 c 0.626,0 1.061,0.632 0.849,1.23 L 0.849,-0.607 C 0.72,-0.243 0.38,0 0,0 m -2.503,-12.082 c -0.608,0 -1.042,0.599 -0.863,1.19 l 0,0 c 0.507,1.844 0.806,3.075 1.027,3.785 l 0.446,0 c 0.223,-0.71 0.522,-1.923 1.028,-3.785 l 0,0 c 0.18,-0.591 -0.254,-1.19 -0.862,-1.19 l -0.776,0 z" /></g></g></g><g
       id="g36"><g
         clip-path="url(#clipPath40)"
         id="g38"><g
           transform="translate(6.1748,87.4961)"
           id="g44"><path
             id="path46"
             style="fill:#ffffff;fill-opacity:1;fill-rule:nonzero;stroke:none"
             d="m 0,0 0,-16.277 c 0,-1.026 0.818,-1.859 1.827,-1.859 l 15.996,0 c 1.009,0 1.827,0.833 1.827,1.859 L 19.65,0 c 0,1.027 -0.818,1.859 -1.827,1.859 l -15.996,0 C 0.818,1.859 0,1.027 0,0 m 17.172,-0.663 0,-11.941 c -1.566,0.526 -4.595,1.826 -5.53,1.936 -1.155,0.137 -2.651,-1.518 -3.576,-1.45 -0.925,0.069 -1.537,3.54 -2.693,3.638 -0.571,0.047 -1.799,-1.316 -2.895,-2.709 l 0,10.526 14.694,0 z" /></g><g
           transform="translate(18.1624,81.8698)"
           id="g48"><path
             id="path50"
             style="fill:#ffffff;fill-opacity:1;fill-rule:nonzero;stroke:none"
             d="m 0,0 c 0,-1.215 -0.968,-2.2 -2.162,-2.2 -1.195,0 -2.163,0.985 -2.163,2.2 0,1.215 0.968,2.2 2.163,2.2 C -0.968,2.2 0,1.215 0,0" /></g></g></g><g
       id="g52"><g
         clip-path="url(#clipPath56)"
         id="g54"><g
           transform="translate(25.2168,116.5854)"
           id="g60"><path
             id="path62"
             style="fill:#ffffff;fill-opacity:1;fill-rule:evenodd;stroke:none"
             d="m 0,0 c -0.005,-0.004 -0.01,-0.005 -0.014,-0.009 l -3.58,-3.643 c -0.466,-0.475 -1.223,-0.475 -1.69,0 -0.24,0.245 -0.352,0.568 -0.344,0.888 l 0,2.412 c -0.002,0 -0.005,0 -0.006,0 -3.048,0 -5.714,-1.658 -7.176,-4.135 0.568,0.962 -1.191,-1.946 -1.191,-1.946 0,4.702 3.746,8.513 8.367,8.513 0.001,0 0.004,0 0.006,0 l 0,2.409 c -0.008,0.32 0.104,0.643 0.344,0.887 0.467,0.475 1.224,0.475 1.69,0 l 3.58,-3.642 C -0.01,1.73 -0.004,1.729 0,1.725 0.234,1.486 0.35,1.175 0.349,0.862 0.35,0.551 0.234,0.238 0,0 m -16.392,2.811 0,-13.621 c 0,-0.269 0.213,-0.487 0.477,-0.487 l 13.388,0 c 0.263,0 0.478,0.217 0.478,0.487 l 0,5.657 2.391,2.432 0,-8.576 c 0,-1.344 -1.071,-2.433 -2.391,-2.433 l -14.343,0 c -1.32,0 -2.391,1.089 -2.391,2.433 l 0,14.594 c 0,1.344 1.071,2.433 2.391,2.433 l 8.95,0 0,-2.433 -8.473,0 c -0.263,0 -0.477,-0.218 -0.477,-0.486" /></g></g></g><g
       id="g64"><g
         clip-path="url(#clipPath68)"
         id="g66"><g
           transform="translate(17.7532,154.7597)"
           id="g72"><path
             id="path74"
             style="fill:#ffffff;fill-opacity:1;fill-rule:nonzero;stroke:none"
             d="m 0,0 c -6.9,0 -11.471,-5.524 -11.471,-11.89 0,-6.117 4.478,-9.831 9.57,-9.831 1.064,0 1.989,0.067 2.871,0.234 1.567,0.297 2.625,1.288 2.481,1.779 -0.144,0.491 -1.197,0.413 -2.446,0.156 -0.749,-0.154 -1.535,-0.234 -2.293,-0.234 -4.57,0 -7.821,2.934 -7.821,8.176 0,5.993 4.08,9.706 8.803,9.706 4.754,0 7.33,-3.12 7.33,-7.208 0,-3.59 -1.656,-5.337 -2.975,-5.275 -0.859,0.032 -1.073,0.906 -0.797,2.715 l 0.676,4.269 c 0.153,0.962 -0.462,1.884 -1.4,2.077 -0.628,0.128 -1.323,0.209 -1.975,0.209 -4.417,0 -7.208,-3.434 -7.208,-7.241 0,-2.591 1.472,-4.12 3.435,-4.12 1.656,0 3.006,0.843 3.987,2.435 l 0.061,0 c 0.154,-1.654 1.197,-2.435 2.638,-2.435 3.313,0 5.828,2.903 5.828,7.459 C 9.294,-3.776 5.429,0 0,0 m 0.553,-10.673 c -0.246,-1.81 -1.442,-3.246 -2.608,-3.246 -0.981,0 -1.503,0.718 -1.503,1.905 0,2.402 1.595,4.431 3.62,4.431 0.368,0 0.705,-0.063 0.951,-0.125 l -0.46,-2.965 z" /></g></g></g><g
       id="g76"><g
         clip-path="url(#clipPath80)"
         id="g78"><g
           transform="translate(22.98,177.7281)"
           id="g84"><path
             id="path86"
             style="fill:#ffffff;fill-opacity:1;fill-rule:nonzero;stroke:none"
             d="m 0,0 c 0.601,0.656 0.899,1.407 0.899,2.25 0,0.799 -0.235,1.554 -0.71,2.262 -0.473,0.71 -1.118,1.242 -1.937,1.599 -0.82,0.357 -2.215,0.535 -4.183,0.535 l -8.385,0 0,-1.093 c 0.786,0 1.121,-0.072 1.408,-0.218 0.287,-0.147 0.488,-0.342 0.601,-0.588 0.115,-0.244 0.172,-0.84 0.172,-1.785 l 0,-10.183 c 0,-0.947 -0.057,-1.54 -0.172,-1.781 -0.113,-0.24 -0.312,-0.437 -0.594,-0.586 -0.284,-0.15 -0.62,-0.227 -1.415,-0.227 l 0,-1.024 8.879,0 c 2.432,0 4.287,0.521 5.563,1.561 1.038,0.859 1.559,1.948 1.559,3.263 0,1.244 -0.475,2.26 -1.42,3.043 -0.658,0.549 -1.803,1.018 -3.434,1.405 C -1.656,-1.18 -0.601,-0.659 0,0 m -7.848,5.667 c 1.232,0.008 2.195,-0.116 2.754,-0.375 0.557,-0.256 0.986,-0.633 1.286,-1.127 0.298,-0.496 0.45,-1.129 0.45,-1.903 0,-0.774 -0.152,-1.409 -0.456,-1.907 -0.305,-0.5 -0.742,-0.888 -1.314,-1.161 -0.567,-0.276 -1.521,-0.413 -2.72,-0.413 l 0,6.886 z m 2.981,-8.265 c 0.651,-0.259 1.162,-0.712 1.534,-1.362 0.372,-0.648 0.557,-1.382 0.557,-2.198 0,-0.713 -0.151,-1.36 -0.456,-1.94 -0.303,-0.582 -0.74,-1.024 -1.312,-1.328 -0.571,-0.306 -1.26,-0.457 -1.936,-0.457 -0.456,0 -0.801,0.117 -1.033,0.352 -0.232,0.238 -0.348,0.588 -0.348,1.052 l 0.013,0.644 0,5.611 c 1.292,0.007 2.329,-0.117 2.981,-0.374" /></g></g></g><g
       id="g88"><g
         clip-path="url(#clipPath92)"
         id="g90"><g
           transform="translate(16.4686,200.8301)"
           id="g96"><path
             id="path98"
             style="fill:#ffffff;fill-opacity:1;fill-rule:nonzero;stroke:none"
             d="m 0,0 c -0.251,0.087 -0.434,0.214 -0.546,0.375 -0.113,0.163 -0.17,0.358 -0.17,0.59 0,0.287 0.145,0.951 0.436,1.997 l 2.337,8.262 c 0.337,1.177 0.612,1.935 0.824,2.277 0.215,0.343 0.527,0.605 0.935,0.791 0.283,0.138 0.714,0.204 1.296,0.195 l 0.583,2.056 -7.145,0 -0.598,-2.056 c 0.7,0 1.172,-0.046 1.411,-0.133 0.242,-0.088 0.423,-0.214 0.54,-0.382 0.117,-0.165 0.176,-0.37 0.176,-0.611 0,-0.48 -0.135,-1.192 -0.409,-2.137 L -2.68,2.962 C -2.999,1.843 -3.308,1.066 -3.608,0.632 -3.798,0.354 -4.094,0.136 -4.494,-0.021 -4.74,-0.131 -5.243,-0.198 -6.007,-0.216 l -0.625,-2.056 7.61,0 0.582,2.056 C 0.77,-0.159 0.248,-0.087 0,0" /></g></g></g><path
       id="path100"
       style="fill:#ffffff;fill-opacity:1;fill-rule:nonzero;stroke:none"
       d="m 8.617,232.349 14.765,0 0,-2.504 -14.765,0 0,2.504 z" /><g
       id="g102"><g
         clip-path="url(#clipPath106)"
         id="g104"><g
           transform="translate(18.4609,249.8768)"
           id="g110"><path
             id="path112"
             style="fill:#ffffff;fill-opacity:1;fill-rule:nonzero;stroke:none"
             d="m 0,0 0,-1.253 c 0.68,0 1.23,-0.56 1.23,-1.252 l 0,-7.512 c 0,-2.074 -1.653,-3.756 -3.691,-3.756 -2.04,0 -3.691,1.682 -3.691,3.756 l 0,7.512 c 0,0.691 0.55,1.252 1.23,1.252 l 0,1.253 -4.922,0 0,-1.253 c 0.68,0 1.231,-0.56 1.231,-1.252 l 0,-7.512 c 0,-3.456 2.754,-6.259 6.152,-6.259 3.398,0 6.152,2.803 6.152,6.259 l 0,7.512 c 0,0.691 0.551,1.252 1.231,1.252 L 4.922,0 0,0 Z" /></g></g></g><path
       id="path114"
       style="fill:#ffffff;fill-opacity:1;fill-rule:nonzero;stroke:none"
       d="m 9.18,270.45 2.495,0 0,3.172 -2.495,0 0,-3.172 z m 0,6.344 2.495,0 0,3.172 -2.495,0 0,-3.172 z m 0,-12.688 2.495,0 0,3.172 -2.495,0 0,-3.172 z m 4.99,6.344 9.98,0 0,3.172 -9.98,0 0,-3.172 z m 0,6.344 9.98,0 0,3.172 -9.98,0 0,-3.172 z m 0,-12.688 9.98,0 0,3.172 -9.98,0 0,-3.172 z" /><g
       id="g116"><g
         clip-path="url(#clipPath120)"
         id="g118"><path
           id="path124"
           style="fill:#ffffff;fill-opacity:1;fill-rule:nonzero;stroke:none"
           d="m 14.154,302.316 10.049,0 0,3.172 -10.049,0 0,-3.172 z m 0,-6.344 10.049,0 0,3.172 -10.049,0 0,-3.172 z m 0,12.688 10.049,0 0,3.172 -10.049,0 0,-3.172 z m -4.585,-3.172 1.75,0 0,6.344 -0.808,0 -1.907,-0.57 0,-1.239 0.965,0.049 0,-4.584 z m 2.467,-5.105 c 0,0.892 -0.269,1.933 -2.153,1.933 -0.74,0 -1.436,-0.149 -1.862,-0.397 l 0.023,-1.635 c 0.471,0.247 0.942,0.371 1.503,0.371 0.56,0 0.717,-0.272 0.717,-0.694 0,-0.644 -0.673,-1.437 -2.467,-2.775 l 0,-1.239 4.307,0 0,1.66 -2.042,-0.049 c 1.1,0.743 1.952,1.635 1.952,2.8 l 0.022,0.025 z" /></g></g></g></svg>